<svg xmlns="http://www.w3.org/2000/svg" width="129" height="38"><g fill="none" fill-rule="nonzero"><g fill="#FFF"><path d="M9.986 10.305a2.4 2.4 0 0 0-.564-.7 3.6 3.6 0 0 0-.803-.514 5 5 0 0 0-.947-.324A4.6 4.6 0 0 0 6.66 8.65q-.592 0-1.186.126-.592.124-1.06.408-.468.283-.755.722-.288.44-.287 1.045 0 .565.277.922.276.354.735.576.457.22 1.07.345.61.125 1.28.23 1.03.165 2.034.415 1.005.25 1.805.728.803.479 1.3 1.281.496.802.495 2.052 0 1.063-.392 1.854-.393.791-1.043 1.342a4.8 4.8 0 0 1-1.48.853 6.3 6.3 0 0 1-1.71.365v2.083H5.718v-2a7.6 7.6 0 0 1-1.47-.281 6.8 6.8 0 0 1-1.425-.605 5 5 0 0 1-1.224-.97 4.4 4.4 0 0 1-.869-1.394l1.816-1.04q.229.541.66.947.428.404.994.687a5.5 5.5 0 0 0 2.4.574q.63 0 1.271-.116a3.8 3.8 0 0 0 1.146-.385q.507-.272.82-.74.316-.469.316-1.176-.002-.582-.305-.99a2.3 2.3 0 0 0-.803-.667 5.4 5.4 0 0 0-1.156-.428q-.661-.165-1.367-.272a27 27 0 0 1-1.94-.355 5.9 5.9 0 0 1-1.691-.645 3.44 3.44 0 0 1-1.204-1.186q-.458-.747-.458-1.979 0-1.02.393-1.77a4 4 0 0 1 1.022-1.259q.63-.51 1.443-.79a8.2 8.2 0 0 1 1.634-.386V4.896h2.044v1.876q.613.084 1.176.24a4.6 4.6 0 0 1 1.07.445q.508.29.927.735.419.447.766 1.11l-1.72.998zM21.793 20.976v-6.748h5.67c1.874 0 4.593-.423 4.732-2.813 0-1.687-1.78-3.046-4.731-3.046-2.438 0-4.968.891-4.968 3.326h-9.183C13.499 3.358 20.76.5 27.46.5s14.292 2.765 14.292 10.543c0 2.578-1.639 5.34-4.497 6.514 3.936 1.498 5.295 4.358 5.295 7.45 0 7.92-8.573 10.45-15.135 10.45s-14.572-3.092-14.572-11.761h9.372c0 3.046 2.906 4.076 5.716 4.076 2.296 0 4.638-1.17 4.638-3.326 0-.937-.234-3.467-4.638-3.467h-6.139zM49.924 16.587c.12 1.33 1.541 1.904 3.263 1.904 1.723 0 3.657-.937 3.657-2.81v-1.873c-1.602 1.238-3.294 1.51-5.05 1.51-4.622 0-8.039-2.477-8.039-7.073 0-5.35 4.686-7.496 9.49-7.496s9.642 2.176 9.642 7.557v7.345c0 5.471-4.807 7.617-9.642 7.617s-9.218-1.632-9.218-6.68h5.896999999999999m-.03-8.342c0 1.723 1.3 2.63 3.324 2.63 2.417 0 3.565-1.15 3.565-2.6 0-1.269-1.178-2.477-3.535-2.477-1.843 0-3.354.846-3.354 2.447M70.478 16.587c.121 1.33 1.541 1.904 3.264 1.904s3.656-.937 3.656-2.81v-1.873c-1.602 1.238-3.294 1.51-5.046 1.51-4.626 0-8.04-2.477-8.04-7.073 0-5.35 4.686-7.496 9.49-7.496s9.642 2.176 9.642 7.557v7.345c0 5.471-4.805 7.617-9.642 7.617s-9.218-1.632-9.218-6.68zm-.03-8.342c0 1.723 1.3 2.63 3.324 2.63 2.417 0 3.565-1.15 3.565-2.6 0-1.269-1.178-2.477-3.535-2.477-1.843 0-3.354.846-3.354 2.447"/></g><g fill="#95C93D"><path d="M111.254 21.737q.28.199.65.365.374.165.792.272.418.106.864.166.445.06.87.06.6 0 1.15-.12.552-.12.978-.385t.678-.69q.252-.424.252-1.034 0-.65-.279-1.062a2 2 0 0 0-.718-.65 3.3 3.3 0 0 0-.97-.338 6.6 6.6 0 0 0-1.05-.113q-.306-.012-.4-.119-.092-.106-.092-.199 0-.186.16-.252.159-.066.425-.066.2 0 .432.026.233.026.458.08.226.053.426.132t.332.16l1.037-1.46a3.9 3.9 0 0 0-1.183-.577 5 5 0 0 0-1.502-.219q-.585 0-1.13.113a3 3 0 0 0-.964.372 2.1 2.1 0 0 0-.678.663q-.26.405-.26 1.001 0 .597.26 1.002t.671.657a3 3 0 0 0 .91.365q.5.113.978.126.69.052.691.358c0 .203-.221.318-.665.318l-.445-.033a3.4 3.4 0 0 1-.538-.093 4 4 0 0 1-.632-.219 5 5 0 0 1-.71-.384zm-3.147-3.644q.38.376.38 1.064 0 .687-.38 1.057-.379.368-.937.369-.306 0-.551-.12a1.4 1.4 0 0 1-.42-.302 1.2 1.2 0 0 1-.258-.43 1.5 1.5 0 0 1-.087-.508 1.9 1.9 0 0 1 .087-.568q.086-.278.252-.482a1.23 1.23 0 0 1 .977-.455q.558 0 .937.375m-2.2-4.952h-2.446v9.286h2.18l.107-.703q.424.478 1.017.663a3.3 3.3 0 0 0 1.15.16q1.449-.094 2.226-.962.778-.87.778-2.435a3.9 3.9 0 0 0-.233-1.38 3.3 3.3 0 0 0-.651-1.08 2.9 2.9 0 0 0-1.004-.71 3.3 3.3 0 0 0-1.302-.252q-.638 0-1.097.185a1.74 1.74 0 0 0-.725.518zm-10.552 2.733v3.634q0 .876.206 1.466t.558.949.818.51.983.153q.519.014 1.084-.186a2.3 2.3 0 0 0 .99-.69l.106.717h2.167v-6.553h-2.42v3.497q0 .654-.345.938a1.2 1.2 0 0 1-1.123.232.7.7 0 0 1-.293-.186 1 1 0 0 1-.206-.338 1.4 1.4 0 0 1-.08-.513v-3.633h-2.445zm-1.343-1.818a4.8 4.8 0 0 0-1.595-.849q-.838-.252-1.888-.252-.744 0-1.442.166t-1.243.504a2.7 2.7 0 0 0-.878.876q-.332.537-.332 1.266 0 .862.306 1.42.305.556.824.882t1.21.484q.69.16 1.449.226 1.555.146 1.555.849 0 .385-.405.603-.406.22-1.057.22a5 5 0 0 1-.625-.04 3.7 3.7 0 0 1-1.396-.471 3.6 3.6 0 0 1-.704-.538l-1.45 1.659q.48.504.958.829.479.324.977.504t1.05.239q.552.06 1.177.06.784 0 1.522-.18.737-.179 1.302-.544t.911-.935q.346-.57.346-1.366t-.333-1.353a2.85 2.85 0 0 0-.864-.916 4.1 4.1 0 0 0-1.21-.544 9 9 0 0 0-1.369-.265q-.345-.04-.631-.08a2 2 0 0 1-.485-.126.8.8 0 0 1-.313-.232.6.6 0 0 1-.113-.385q0-.185.107-.318a.75.75 0 0 1 .285-.212q.18-.08.406-.12t.465-.04q.612 0 1.157.14.544.14 1.023.497zM119.068 2.197v9.286h2.46V8.02q.012-.584.338-.855.325-.273.685-.272c.239 0 .454.068.618.205q.246.206.272.763v3.622h2.433V7.848q0-.823-.22-1.406a2.7 2.7 0 0 0-.578-.949 2.2 2.2 0 0 0-.824-.537 2.7 2.7 0 0 0-.957-.173q-.598 0-1.003.2-.405.198-.752.65V2.196zm-1.939 6.845a1.8 1.8 0 0 1-.565.404q-.312.14-.658.14-.345 0-.611-.113a1.253 1.253 0 0 1-.718-.73 1.4 1.4 0 0 1-.093-.51q0-.624.365-1.062t1.07-.438q.665 0 1.13.478l1.303-1.406a3.3 3.3 0 0 0-1.19-.77 3.9 3.9 0 0 0-1.389-.252c-.478 0-.913.067-1.356.2q-.664.198-1.183.623a3.1 3.1 0 0 0-.83 1.074q-.313.65-.313 1.54c0 .592.104 1.131.312 1.565q.314.65.831 1.054.519.405 1.19.59.671.186 1.39.186c.478 0 .972-.097 1.428-.292a4.7 4.7 0 0 0 1.283-.822zm-5.798 2.44V7.849q0-.876-.206-1.466t-.558-.949a2 2 0 0 0-.818-.51 3.1 3.1 0 0 0-.984-.153 3 3 0 0 0-1.083.186 2.3 2.3 0 0 0-.99.69l-.107-.717h-2.166v6.554h2.419V8.025q0-.653.346-.958.345-.305.784-.305.173 0 .332.053a.75.75 0 0 1 .293.186q.133.132.212.338.08.207.08.513v3.633h2.446zm-8.113-6.447h-2.46v6.448h2.46zm-2.486-1.26q.12.226.312.378.193.154.439.232a1.65 1.65 0 0 0 1.01 0q.246-.08.439-.232t.312-.378.12-.53q0-.306-.12-.538a1.2 1.2 0 0 0-.312-.384 1.4 1.4 0 0 0-.439-.233 1.652 1.652 0 0 0-1.01 0 1.4 1.4 0 0 0-.439.233q-.192.152-.312.384t-.12.538.12.53m-4.768 4.829h3.74V6.667h-3.74zm-6.226.564q-.378-.325-.379-.737 0-.464.373-.789.372-.325 1.143-.325.651 0 1.037.292t.385.836q0 .503-.419.776-.418.272-1.017.272-.744 0-1.123-.325m4.965-4.279q0-.809-.319-1.353a2.5 2.5 0 0 0-.857-.875 3.8 3.8 0 0 0-1.25-.478 7.4 7.4 0 0 0-1.495-.146c-.523 0-1.013.062-1.496.186a4 4 0 0 0-1.29.57 2.9 2.9 0 0 0-.903.982q-.34.597-.34 1.42v3.223q0 .863.36 1.473.359.61.944 1.001.584.391 1.316.57.73.18 1.488.18c.506 0 1.013-.06 1.496-.18q.725-.179 1.296-.563a2.9 2.9 0 0 0 .917-.988q.346-.604.346-1.466 0-.73-.26-1.294a2.7 2.7 0 0 0-.717-.948 3.1 3.1 0 0 0-1.09-.577 4.7 4.7 0 0 0-1.363-.193q-.558 0-1.156.166-.599.166-.997.471v-.875q0-.265.126-.478t.332-.352.466-.212q.258-.072.538-.073.558 0 .957.193a.72.72 0 0 1 .439.616z"/></g><g fill="#95C93D"><path d="M121.34 26.622a1.5 1.5 0 0 0-.55-.321 2.3 2.3 0 0 0-1.086-.035 1.4 1.4 0 0 0-.42.163.96.96 0 0 0-.315.297.8.8 0 0 0-.124.45.75.75 0 0 0 .117.436q.12.175.302.283c.121.073.26.128.409.163q.224.052.444.072c.221.01.377.049.471.104a.27.27 0 0 1 .139.246c0 .107-.056.197-.17.252a.8.8 0 0 1-.388.08 2 2 0 0 1-.548-.1 1.2 1.2 0 0 1-.513-.322l-.374.543a1.7 1.7 0 0 0 1.057.53q.181.018.364.017c.222 0 .412-.028.579-.08q.245-.082.412-.221a.915.915 0 0 0 .333-.71q0-.305-.125-.49a.9.9 0 0 0-.315-.295 1.4 1.4 0 0 0-.423-.145 4 4 0 0 0-.454-.052q-.577-.038-.576-.335.001-.144.142-.225c.097-.056.236-.08.42-.08q.217 0 .409.059c.128.038.243.11.353.214l.423-.498zm-3.036 2.75V27.76q0-.361-.104-.64a1.5 1.5 0 0 0-.277-.473 1.2 1.2 0 0 0-.416-.295 1.33 1.33 0 0 0-1.044.014 1.9 1.9 0 0 0-.478.346l-.049-.418h-.679v3.075h.756v-1.57c0-.118.017-.225.055-.33a.9.9 0 0 1 .16-.272.74.74 0 0 1 .571-.256c.24 0 .427.08.552.235q.191.238.19.584v1.605h.763zm-4.856-2.362q.152.078.263.204a.9.9 0 0 1 .17.29q.06.166.059.336 0 .173-.052.335a.9.9 0 0 1-.156.291.74.74 0 0 1-.264.204.8.8 0 0 1-.364.076.8.8 0 0 1-.364-.076.8.8 0 0 1-.263-.204.9.9 0 0 1-.156-.29 1.1 1.1 0 0 1 0-.672.9.9 0 0 1 .16-.29.801.801 0 0 1 .624-.284q.194.001.346.08m-1.016-.64q-.29.128-.499.346a1.5 1.5 0 0 0-.319.508q-.112.291-.11.62c0 .217.038.428.11.622q.108.293.316.512.207.218.502.342t.67.125.672-.125q.297-.124.506-.342a1.5 1.5 0 0 0 .319-.512q.11-.29.11-.623 0-.33-.11-.619a1.5 1.5 0 0 0-.836-.854 1.6 1.6 0 0 0-.665-.128q-.368-.001-.662.128m-2.156-.599q.14.11.308.111t.309-.11q.14-.11.139-.333-.002-.221-.14-.328a.48.48 0 0 0-.308-.111.5.5 0 0 0-.308.11c-.094.077-.139.184-.139.33 0 .145.049.259.139.331m-.073 3.601h.763V26.29h-.763zm-2.149-3.853v.792h-.575v.654h.575v1.325q0 .579.298.857.3.28.804.263c.118-.003.222-.017.323-.034q.146-.028.308-.097l-.211-.647a1 1 0 0 1-.184.07.7.7 0 0 1-.184.023.4.4 0 0 1-.29-.107q-.112-.11-.112-.328v-1.325h.856v-.654h-.849v-.872l-.762.08zm-1.345 2.957a.75.75 0 0 1-.319.198 1.2 1.2 0 0 1-.357.055 1 1 0 0 1-.336-.059.8.8 0 0 1-.277-.17.8.8 0 0 1-.191-.28 1 1 0 0 1-.07-.387c0-.131.021-.256.067-.367a.9.9 0 0 1 .183-.29.87.87 0 0 1 .638-.253q.161 0 .322.06.16.057.298.182l.482-.501a1.6 1.6 0 0 0-.516-.35 1.6 1.6 0 0 0-.593-.103c-.222 0-.437.034-.634.1a1.4 1.4 0 0 0-.87.81 1.8 1.8 0 0 0-.132.715q0 .41.132.716.13.307.353.509.22.203.517.3.296.1.634.101.339 0 .631-.114a1.7 1.7 0 0 0 .555-.377l-.513-.502zm-3.546-2.705q.142.11.309.111t.308-.11q.14-.11.139-.333.001-.221-.139-.328a.48.48 0 0 0-.308-.111.5.5 0 0 0-.309.11c-.093.077-.139.184-.139.33 0 .145.046.259.14.331m-.074 3.601h.763V26.29h-.763zm-2.776-3.068v3.068h.762v-1.619q0-.212.063-.36.06-.15.173-.241a.7.7 0 0 1 .246-.135 1 1 0 0 1 .288-.042.9.9 0 0 1 .308.049q.12.05.24.148l.343-.66a1 1 0 0 0-.34-.208 1.3 1.3 0 0 0-.454-.083 1.3 1.3 0 0 0-.461.08.856.856 0 0 0-.406.36l-.055-.357h-.707m-2.16-.785v.792h-.575v.654h.575v1.325q0 .579.298.857.301.28.805.263a2 2 0 0 0 .322-.034q.147-.028.308-.097l-.211-.647a1 1 0 0 1-.184.07.7.7 0 0 1-.183.023.4.4 0 0 1-.292-.107q-.108-.11-.107-.328v-1.325h.856v-.654h-.85v-.872zm-.984 1.103a1.5 1.5 0 0 0-.551-.321 2.2 2.2 0 0 0-.645-.083q-.212 0-.44.048a1.4 1.4 0 0 0-.42.163.96.96 0 0 0-.315.297.8.8 0 0 0-.125.45.75.75 0 0 0 .118.436q.12.175.302.283c.121.073.26.128.409.163q.225.052.443.072c.222.01.378.049.472.104a.28.28 0 0 1 .142.246c0 .107-.056.197-.17.252a.8.8 0 0 1-.388.08 2 2 0 0 1-.548-.1 1.2 1.2 0 0 1-.513-.322l-.374.543a1.7 1.7 0 0 0 1.057.53q.182.016.364.017c.222 0 .412-.028.579-.08q.245-.082.412-.221a.915.915 0 0 0 .333-.71q0-.305-.125-.49a.9.9 0 0 0-.315-.295 1.4 1.4 0 0 0-.423-.145 4 4 0 0 0-.454-.052c-.381-.024-.576-.138-.576-.335q.001-.144.143-.225c.097-.056.235-.08.419-.08q.217 0 .409.059c.128.038.243.11.354.214l.422-.498zm-4.964.405a.97.97 0 0 1 .544-.152c.222 0 .403.048.545.152a.63.63 0 0 1 .253.453h-1.66a.77.77 0 0 1 .318-.453m2.021.253a1.5 1.5 0 0 0-.298-.595 1.2 1.2 0 0 0-.513-.357 1.9 1.9 0 0 0-.693-.117c-.26 0-.475.038-.676.117a1.5 1.5 0 0 0-.513.332q-.21.215-.326.512a1.8 1.8 0 0 0-.114.644q0 .366.114.67c.076.205.187.374.333.516.145.142.322.256.53.332q.312.119.71.118a2.2 2.2 0 0 0 .718-.125q.171-.062.326-.155a1.5 1.5 0 0 0 .28-.218l-.485-.481a.7.7 0 0 1-.166.121 1.4 1.4 0 0 1-.658.163q-.406-.001-.642-.184a.68.68 0 0 1-.274-.47h2.403a2.4 2.4 0 0 0-.049-.827m-5.158-1.49q.193 0 .333.058.139.058.236.16a.6.6 0 0 1 .138.224.8.8 0 0 1 .045.252.7.7 0 0 1-.045.253.63.63 0 0 1-.37.384.9.9 0 0 1-.337.059h-1.255v-1.387h1.255zm1.789 3.53-1.324-1.493q.311-.063.523-.198c.142-.09.253-.2.34-.321q.127-.187.184-.405c.038-.145.055-.29.055-.443q-.001-.28-.1-.54a1.3 1.3 0 0 0-.299-.46 1.6 1.6 0 0 0-.492-.321 1.8 1.8 0 0 0-.68-.121H87v4.365h.825v-1.463h.835l1.266 1.463h.942v-.055zM103.472 35.202a.49.49 0 0 0 .617 0q.139-.11.138-.332-.001-.224-.138-.332a.5.5 0 0 0-.309-.111.5.5 0 0 0-.308.11q-.141.11-.142.333 0 .223.142.332m-.905-3.01-.562 1.346-.318.847-.295-.864-.468-1.325h-.887l1.23 3.02-.63 1.456h.835l1.934-4.476h-.842zm-3.699 3.069h.756v-4.352h-.756zm-3.147 1.407v-1.767a.7.7 0 0 0 .205.207q.124.083.263.135.14.047.284.073.144.02.267.02.369.001.659-.124.291-.124.489-.342.197-.218.301-.512a1.9 1.9 0 0 0 .104-.63q-.001-.338-.11-.633a1.48 1.48 0 0 0-.822-.85 1.6 1.6 0 0 0-.645-.125q-.26 0-.54.114a1.03 1.03 0 0 0-.458.377l-.049-.422h-.71v4.476h.762zm.586-2.134a.82.82 0 0 1-.454-.463.98.98 0 0 1-.003-.678.8.8 0 0 1 .17-.277.8.8 0 0 1 .273-.187 1 1 0 0 1 .367-.069q.205 0 .368.07a.77.77 0 0 1 .444.463 1 1 0 0 1-.004.678.82.82 0 0 1-.454.463.9.9 0 0 1-.357.07.9.9 0 0 1-.357-.07m-4.471 2.134v-1.767a.7.7 0 0 0 .204.207q.126.083.263.135.14.047.285.073c.097.014.183.02.267.02q.368.001.658-.124.291-.124.489-.342c.132-.146.236-.315.301-.512a1.9 1.9 0 0 0 .104-.63q-.001-.338-.11-.633a1.5 1.5 0 0 0-.323-.512 1.5 1.5 0 0 0-.499-.339 1.6 1.6 0 0 0-.645-.124q-.26 0-.54.114c-.184.076-.34.204-.458.377l-.048-.422h-.711v4.476h.763zm.585-2.134a.82.82 0 0 1-.454-.463.98.98 0 0 1-.003-.678.802.802 0 0 1 .447-.464 1 1 0 0 1 .367-.069q.205 0 .368.07a.77.77 0 0 1 .443.463 1 1 0 0 1-.003.678.82.82 0 0 1-.454.463.9.9 0 0 1-.357.07.9.9 0 0 1-.357-.07m-3.238-1.601q.2.136.298.346.1.206.101.45c0 .162-.035.307-.1.449a.87.87 0 0 1-.299.346.87.87 0 0 1-.499.138q-.186 0-.357-.062a.85.85 0 0 1-.291-.183.9.9 0 0 1-.194-.294 1 1 0 0 1-.073-.391q0-.22.073-.391a.81.81 0 0 1 .485-.474 1 1 0 0 1 .357-.062q.302 0 .5.138m.01-.692q-.268-.135-.58-.135-.334.001-.63.1a1.4 1.4 0 0 0-.51.302 1.5 1.5 0 0 0-.34.505q-.123.3-.124.702c0 .266.038.505.118.709q.12.305.33.512.209.206.502.308.29.103.634.103.131.001.277-.034a1.4 1.4 0 0 0 .285-.104q.136-.066.253-.17a.8.8 0 0 0 .183-.235l.038.45h.718v-3.068h-.731l-.025.422a.9.9 0 0 0-.398-.363"/></g></g></svg>