<svg xmlns="http://www.w3.org/2000/svg" width="181" height="160"><g fill="none" fill-rule="nonzero"><path fill="#8DC63F" d="M103.113 75.932c1.78-.242 18.162-2.062 29.771 6.672a55.45 55.45 0 0 0 6.958-26.928C139.882 24.906 114.924 0 84.182 0s-55.7 24.906-55.7 55.676c0 30.769 24.958 55.675 55.7 55.675 10.517 0 20.346-2.952 28.76-8.006-9.303-10.229-9.789-25.432-9.83-27.413m-18.931 3.396c-13.066 0-23.664-10.593-23.664-23.652s10.598-23.653 23.664-23.653c13.065 0 23.663 10.593 23.663 23.653-.04 13.06-10.598 23.652-23.663 23.652"/><path fill="#008752" d="M103.113 75.932c.04 2.143.566 19.731 12.216 29.799s30.176 8.167 31.268 7.844c-.081-2.103-.566-19.731-12.216-29.84-11.65-10.027-29.408-8.045-31.268-7.803"/><g fill="#008752"><path d="M24.64 149.709c1.296-2.165 1.943-4.778 1.943-7.718 0-4.003-1.173-7.27-3.48-9.76-2.427-2.614-5.705-3.921-9.791-3.921s-7.364 1.307-9.751 3.92C1.173 134.68 0 137.988 0 141.99c0 4.043 1.173 7.392 3.48 9.842 2.387 2.532 5.705 3.84 9.791 3.84.729 0 1.416-.042 2.023-.123.081.081 4.977 4.451 4.977 4.451h5.826s-6.311-5.513-6.554-5.717c2.225-1.062 3.924-2.573 5.098-4.574M6.92 135.17c1.537-1.96 3.682-2.94 6.393-2.94s4.855.98 6.393 2.94c1.416 1.796 2.104 4.083 2.104 6.779s-.688 4.982-2.064 6.779c-1.497 1.96-3.682 2.98-6.474 2.98s-4.936-.98-6.474-2.98c-1.375-1.756-2.063-4.043-2.063-6.738.04-2.737.769-5.024 2.185-6.82M42.848 135.702v9.065c0 2.328-.445 4.166-1.375 5.473q-1.456 2.02-4.249 1.96c-1.416-.04-2.387-.572-2.994-1.552-.566-.98-.85-2.613-.85-4.819v-10.087h-4.248v11.517c0 5.594 2.59 8.412 7.688 8.412a8.9 8.9 0 0 0 4.005-.94c.89-.448 1.578-1.102 2.145-1.837v2.369h4.208v-19.52h-4.33zM50.779 135.702v19.52h4.33v-19.52zM72.587 150.852l-.485.286c-1.052.654-2.306.98-3.723.98-2.023 0-3.641-.694-4.734-2.123-.97-1.225-1.456-2.777-1.456-4.574q0-2.695 1.578-4.656c1.092-1.347 2.59-2.041 4.41-2.041 1.214 0 2.468.245 3.803.775l.405.164.405-3.594-.243-.082c-1.295-.49-2.832-.776-4.532-.776-3.075 0-5.583.98-7.485 2.86-1.902 1.918-2.873 4.369-2.873 7.35 0 2.818.971 5.268 2.873 7.187 1.983 2.001 4.491 3.022 7.485 3.022 1.902 0 3.48-.286 4.694-.816l.243-.082zM83.188 144.4c.162-.163 9.509-8.698 9.509-8.698h-5.948s-7.04 6.82-7.405 7.187v-15.56h-4.329v27.893h4.33v-9.148c.364.409 8.294 9.148 8.294 9.148h6.19c-.04 0-10.52-10.659-10.64-10.822"/><path d="m112.684 150.28-.485.286c-1.376.817-3.277 1.226-5.584 1.226-2.71 0-5.017-.899-6.878-2.655s-2.792-4.124-2.792-6.942c0-2.777.93-5.105 2.71-6.902 1.781-1.797 4.209-2.695 7.122-2.695 1.902 0 3.682.49 5.3 1.388l.486.286.364-4.329-.243-.081c-1.74-.735-3.803-1.144-6.11-1.144-4.126 0-7.606 1.225-10.276 3.676-2.711 2.45-4.047 5.717-4.047 9.678 0 4.125 1.336 7.433 3.925 9.924 2.59 2.45 6.11 3.675 10.358 3.675 2.55 0 4.613-.327 6.15-.94l.243-.08zM125.51 135.252c-2.548 0-4.531.858-5.988 2.573V127.33h-4.329v27.892h4.33v-9.066c0-2.328.444-4.165 1.375-5.431q1.457-2.022 4.248-1.96c1.417.04 2.388.53 2.954 1.51.567 1.021.89 2.655.89 4.86v10.087h4.33v-11.516c-.081-5.636-2.67-8.454-7.81-8.454M154.117 146.238c0-7.31-3.035-10.986-9.023-10.986-2.832 0-5.139.94-6.92 2.777-1.739 1.838-2.629 4.207-2.629 7.106 0 3.267.85 5.799 2.549 7.637 1.82 1.92 4.491 2.9 7.93 2.9 1.821 0 3.966-.41 6.312-1.226-.04 0 .162-.04.162-.04l.081-.042v-4.4510000000000005l-.566.45c-.486.367-1.255.775-2.347 1.143-1.254.408-2.428.653-3.48.653-1.659 0-3.115-.53-4.289-1.633-1.133-1.021-1.74-2.369-1.82-3.92h13.959v-.368zm-9.104-7.474c1.416 0 2.508.45 3.318 1.389.728.817 1.133 1.878 1.173 3.185h-9.346c.202-1.184.606-2.205 1.254-2.981.89-1.062 2.104-1.593 3.6-1.593M164.798 144.4c.162-.163 9.509-8.698 9.509-8.698h-5.948s-7.04 6.82-7.404 7.187v-15.56h-4.33v27.893h4.33v-9.148c.364.409 8.294 9.148 8.294 9.148h6.19c-.04 0-10.479-10.659-10.64-10.822M53.045 128.228c-1.417 0-2.59 1.185-2.59 2.614 0 1.43 1.173 2.613 2.59 2.613s2.59-1.184 2.59-2.613a2.594 2.594 0 0 0-2.59-2.614"/></g><path fill="#008752" d="M178.838 151.628c1.174 0 2.104.98 2.104 2.124a2.125 2.125 0 0 1-2.104 2.123c-1.173 0-2.104-.98-2.104-2.123a2.1 2.1 0 0 1 2.104-2.124m0 3.962c.971 0 1.7-.776 1.7-1.838 0-1.021-.729-1.838-1.7-1.838-.97 0-1.74.776-1.74 1.838.041 1.02.77 1.838 1.74 1.838m-.809-3.104H179c.567 0 .85.245.85.694 0 .408-.243.694-.647.694l.687 1.103h-.445l-.687-1.103h-.324v1.103h-.405zm.405 1.102h.485c.324 0 .526-.081.526-.408 0-.286-.242-.367-.526-.367h-.485z"/></g></svg>