<svg xmlns="http://www.w3.org/2000/svg" viewBox="0 0 171.9 43"><defs><style>.cls-2{fill:#fff}</style></defs><g id="Layer_8"><rect width="159.6" height="33.4" x="6.1" y="4.8" rx="16.7" ry="16.7" style="fill:#80bc00"/><path d="M24.8 17.6c2.9 0 4.1 2 4.2 4.1 0 2.1-1.2 4.2-4.2 4.2h-3.3v-8.3zm-1.7 6.8h1.7c1.9 0 2.6-1.4 2.6-2.7s-.8-2.6-2.6-2.6h-1.7zM39.2 21.8c0 2.2-1.3 4.3-4.3 4.3s-4.3-2.1-4.3-4.3 1.9-4.4 4.3-4.4c2.8 0 4.3 2.2 4.2 4.4Zm-4.3 2.9c2 0 2.7-1.5 2.7-2.8 0-1.4-.8-2.9-2.7-3-1.8 0-2.8 1.3-2.8 3 0 1.4.8 2.8 2.7 2.8ZM49.7 25.9h-1.3l-1-2.6-.9-2.6-.9 2.7-1 2.6h-1.3l-3.1-8.3H42l2 6 2-6h1l2.1 6 1.9-6h1.8l-3 8.3ZM60.1 23.2v-5.6h1.6v8.3h-1.3L56 20.4v5.5h-1.6v-8.3h1.3zM72.3 21.8c0 2.2-1.3 4.3-4.3 4.3s-4.3-2.1-4.3-4.3 1.9-4.4 4.3-4.4c2.8 0 4.3 2.2 4.2 4.4ZM68 24.7c2 0 2.7-1.5 2.7-2.8 0-1.4-.8-2.9-2.7-3-1.8 0-2.8 1.3-2.8 3 0 1.4.8 2.8 2.7 2.8ZM79.9 24.3h-4.4l-.7 1.6h-1.7l3.7-8.3h1.7l3.7 8.3h-1.7l-.7-1.6Zm-2.2-5-1.5 3.5h3.1l-1.5-3.5ZM87.2 17.6c2.9 0 4.1 2 4.2 4.1 0 2.1-1.2 4.2-4.2 4.2h-3.3v-8.3zm-1.7 6.8h1.7c1.9 0 2.6-1.4 2.6-2.7s-.8-2.6-2.6-2.6h-1.7zM98.5 19h-2.6v-1.4h6.9V19h-2.6v6.9h-1.6V19ZM110.2 25.9v-3.4h-4.1v3.4h-1.6v-8.3h1.6v3.5h4.1v-3.5h1.6v8.3zM120.5 25.9h-6.2v-8.3h6.2v1.5h-4.7V21h4.5v1.5h-4.5v1.9h4.7zM131.7 24.3h-4.4l-.7 1.6h-1.7l3.7-8.3h1.7l3.7 8.3h-1.7l-.7-1.6Zm-2.2-5-1.5 3.5h3.1l-1.5-3.5ZM137.3 23.5V26h-1.6v-8.3h3.9c4.1 0 4.1 5.8 0 5.9h-2.4Zm0-1.5h2.4c2 0 2-3 0-3h-2.4zM146.2 23.5V26h-1.6v-8.3h3.9c4.1 0 4.1 5.8 0 5.9h-2.4Zm0-1.5h2.4c2 0 2-3 0-3h-2.4z" class="cls-2"/></g></svg>