<svg xmlns="http://www.w3.org/2000/svg" viewBox="0 0 970 250"><defs><style>.cls-1{fill:#fff}</style></defs><g id="Layer_1_copy_3"><path d="M90.875 100.632c-24.21 0-41.137-14.054-41.137-38.777 0-24.21 16.927-38.879 41.137-38.879s41.034 14.259 41.034 38.879-16.926 38.777-41.034 38.777m0-59.704c-12.002 0-20.209 8.617-20.209 20.927s8.31 20.825 20.209 20.825c12.208 0 20.106-8.617 20.106-20.825 0-12.823-7.796-20.927-20.106-20.927M158.478 46.57l1.128 5.745c2.873-5.027 7.591-6.976 12.618-6.976 5.437 0 10.361 1.847 13.746 5.54l-7.796 14.054c-3.283-2.462-5.437-3.078-8.72-3.078-5.026 0-9.027 2.873-9.027 9.746v27.185h-19.389V46.57h17.439ZM227.928 24.822h19.491v73.964h-17.337l-.821-5.642c-4.616 5.129-11.387 6.873-17.234 6.565-15.388-.923-23.902-10.464-23.902-26.98 0-16.003 10.053-27.288 25.338-27.288 6.771 0 11.592 2.052 14.464 5.54V24.822Zm-20.517 47.907c0 7.284 4.617 11.387 10.464 11.387 6.463 0 10.463-5.437 10.463-10.874 0-6.36-3.693-12.105-10.463-12.105-5.847 0-10.464 4.309-10.464 11.592M312.047 78.166h-36.52c1.436 4.616 7.386 6.668 11.694 6.668 5.745 0 10.053-1.641 13.336-4.206l9.541 10.669c-6.36 5.95-14.772 8.617-23.8 8.617-16.414 0-30.365-8.104-30.365-27.083 0-19.081 14.875-27.493 29.031-27.493 18.465 0 31.596 12.105 27.083 32.827Zm-17.44-12.413c-.41-8.31-17.645-8.617-18.978 0zM338.616 46.57l1.128 5.745c2.873-5.027 7.591-6.976 12.618-6.976 5.437 0 10.361 1.847 13.746 5.54l-7.796 14.054c-3.283-2.462-5.437-3.078-8.72-3.078-5.026 0-9.027 2.873-9.027 9.746v27.185h-19.389V46.57h17.439ZM447.868 86.681h-33.135l-4.821 12.105h-22.158l33.135-73.964h21.132l33.032 73.964H452.69zm-16.516-41.137-9.54 23.595h18.978zM498.854 24.822v27.39c3.693-4.821 7.899-6.771 13.951-6.771 10.464 0 20.518 6.976 20.518 24.416v28.929h-19.389V69.96c-.308-5.95-3.077-7.694-7.078-7.694-3.796 0-8.002 2.667-8.104 8.925v27.595h-19.491V24.822h19.594ZM597.233 78.166h-36.521c1.437 4.616 7.387 6.668 11.695 6.668 5.744 0 10.053-1.641 13.336-4.206l9.54 10.669c-6.36 5.95-14.772 8.617-23.8 8.617-16.413 0-30.365-8.104-30.365-27.083 0-19.081 14.875-27.493 29.032-27.493 18.465 0 31.596 12.105 27.082 32.827Zm-17.439-12.413c-.41-8.31-17.645-8.617-18.979 0zM645.139 46.57H663.4v52.216h-17.953l-.923-5.642c-4.514 5.129-11.284 6.873-17.132 6.565-15.388-.821-23.902-11.9-23.902-26.98 0-15.49 10.054-27.288 25.339-27.288 7.488 0 12.516 2.565 15.285 6.771zm-22.364 26.159c0 7.284 4.616 11.387 10.464 11.387 6.565 0 10.771-5.232 10.771-11.387 0-7.078-3.898-11.592-10.771-11.592-5.848 0-10.464 4.309-10.464 11.592M711.82 24.822h19.49v73.964h-17.336l-.821-5.642c-4.616 5.129-11.387 6.873-17.234 6.565-15.388-.923-23.902-10.464-23.902-26.98 0-16.003 10.054-27.288 25.339-27.288 6.771 0 11.592 2.052 14.465 5.54zm-20.517 47.907c0 7.284 4.616 11.387 10.464 11.387 6.463 0 10.464-5.437 10.464-10.874 0-6.36-3.693-12.105-10.464-12.105-5.848 0-10.464 4.309-10.464 11.592M771.729 98.786V62.574h-8.822v-15.08h8.822v-2.462c0-15.388 11.797-21.338 22.466-21.338 6.053 0 11.9 1.847 15.798 5.643l-5.949 11.797c-2.052-1.846-4.514-2.564-7.079-2.564-3.077 0-5.744 1.847-5.744 6.463v2.462h13.438v15.08h-13.438v36.212H771.73ZM867.439 72.832c0 18.979-14.567 27.185-29.236 27.185-14.978 0-29.032-8.207-29.032-27.185 0-19.491 13.952-27.39 29.032-27.39 15.593 0 29.236 8.31 29.236 27.39m-19.081 0c0-5.95-3.385-11.489-10.155-11.489s-10.054 5.54-10.054 11.489 3.18 11.285 10.054 11.285c6.668 0 10.155-5.027 10.155-11.285M893.498 46.57l1.128 5.745c2.872-5.027 7.592-6.976 12.618-6.976 5.437 0 10.361 1.847 13.746 5.54l-7.796 14.054c-3.283-2.462-5.438-3.078-8.72-3.078-5.027 0-9.028 2.873-9.028 9.746v27.185h-19.388V46.57h17.439ZM62.203 181.368v20.004H41.276v-73.964h35.905c19.901 0 29.75 12.516 29.75 26.98 0 15.079-9.951 26.672-29.75 26.979H62.203Zm0-17.644h14.978c5.95 0 8.822-4.104 8.822-9.027 0-5.027-2.975-9.336-8.822-9.336H62.203zM124.165 125.972c5.437 0 10.874 3.385 10.874 9.746s-5.437 9.745-10.874 9.745-10.977-3.385-10.977-9.745 5.54-9.746 10.977-9.746m-9.746 75.4v-51.395h19.491v51.395zM193.614 193.575c-6.257 5.54-13.644 8.822-21.542 8.822-15.183 0-29.544-7.488-29.544-26.979 0-19.081 14.464-27.39 29.236-27.39 7.591 0 14.978 2.667 20.517 8.104l-10.361 11.182c-2.462-2.462-5.54-3.795-9.028-3.795-7.488 0-11.387 5.334-11.387 12.002 0 5.54 4.001 10.771 11.284 10.771 3.693 0 7.079-1.539 9.746-4.411zM219.772 127.408v37.136l10.874-15.388h21.646v.821l-18.26 23.696 21.235 26.569v1.129h-21.953l-13.541-18.157v18.157h-19.491v-73.964h19.491ZM279.169 149.156v28.826c0 6.463 3.591 8.72 7.284 8.72 4.616 0 9.027-2.872 9.027-9.745v-27.801h19.184v52.216H297.43l-.821-5.745c-4.514 5.232-10.977 7.079-16.516 6.977-10.977 0-20.414-5.848-20.414-24.519v-28.929zM345.542 223.12h-19.389v-73.964h17.337l.821 5.643c4.514-5.13 11.284-6.873 17.234-6.565 15.285.923 23.799 10.463 23.799 27.082 0 15.9-10.156 27.186-25.338 27.186-6.771 0-11.592-2.052-14.464-5.54v26.159Zm20.517-47.805c0-7.283-4.514-11.489-10.464-11.489-6.565 0-10.463 5.437-10.463 10.874 0 6.36 3.693 12.104 10.463 12.104 5.95 0 10.464-4.206 10.464-11.489M444.626 154.594c-.365-8.846-16.96-8.298-16.96-.183 0 4.924 4.377 7.021 7.842 7.021h32.462v13.131h-6.657v5.106c0 3.647 2.553 6.292 7.021 5.562v16.23c-5.927 1.186-13.404.729-16.414-7.021-5.015 5.197-11.216 7.933-20.244 7.933-12.583 0-25.167-4.377-25.167-20.152 0-5.106 3.647-11.124 9.483-14.407-5.38-2.735-7.204-9.301-7.204-13.04 0-15.866 15.684-20.334 27.356-20.334 13.222 0 25.441 5.015 25.441 20.152h-16.96Zm-10.668 32.918c5.471 0 10.578-2.918 10.578-8.207v-4.377h-10.03c-4.104 0-9.666 1.003-9.666 6.292 0 4.469 4.286 6.292 9.119 6.292ZM530.502 127.408c26.159 0 38.675 16.209 38.675 36.418 0 20.312-12.105 37.546-38.675 37.546h-31.699v-73.964zm-10.977 56.32h10.977c13.233 0 17.952-9.951 17.952-20.106s-5.129-18.773-17.952-18.773h-10.977v38.88ZM631.753 180.753h-36.521c1.437 4.616 7.387 6.668 11.695 6.668 5.744 0 10.053-1.642 13.336-4.206l9.54 10.669c-6.36 5.949-14.772 8.617-23.8 8.617-16.413 0-30.365-8.104-30.365-27.083 0-19.081 14.875-27.492 29.032-27.492 18.465 0 31.596 12.104 27.082 32.827Zm-17.44-12.413c-.41-8.31-17.645-8.617-18.979 0zM660.065 127.306v74.066h-19.183v-74.066zM681.301 125.972c5.438 0 10.874 3.385 10.874 9.746s-5.437 9.745-10.874 9.745-10.977-3.385-10.977-9.745 5.54-9.746 10.977-9.746m-9.745 75.4v-51.395h19.491v51.395zM722.231 163.724l5.642 16.927 5.232-16.927 5.642-14.567h20.62l-21.543 52.523h-19.389l-22.466-52.523h20.619zM818.045 180.753h-36.521c1.437 4.616 7.387 6.668 11.695 6.668 5.744 0 10.053-1.642 13.336-4.206l9.54 10.669c-6.36 5.949-14.772 8.617-23.8 8.617-16.413 0-30.365-8.104-30.365-27.083 0-19.081 14.875-27.492 29.032-27.492 18.465 0 31.596 12.104 27.082 32.827Zm-17.44-12.413c-.41-8.31-17.645-8.617-18.979 0zM844.614 149.156l1.128 5.745c2.872-5.027 7.592-6.976 12.618-6.976 5.437 0 10.361 1.846 13.746 5.539l-7.796 14.055c-3.283-2.463-5.438-3.078-8.72-3.078-5.027 0-9.028 2.872-9.028 9.746v27.185h-19.388v-52.216h17.439Z" class="cls-1"/><path d="m933.761 149.156-32.314 74.271h-20.312l10.566-24.415-20.722-49.856h20.619l4.411 12.516 5.745 18.055 6.258-18.157 4.924-12.413h20.825Z" class="cls-1"/></g></svg>