<svg xmlns="http://www.w3.org/2000/svg" viewBox="0 0 205.821 56.081"><defs><style>.cls-1{fill:#93d500}.cls-3{fill:#fff}</style></defs><g id="Option_2"><path d="M70.256 42.294c-.675-.646-1.68-1.006-2.556-1.006-2.154 0-3.46 1.551-3.46 3.633 0 1.651.962 3.36 3.46 3.36.804 0 1.465-.173 2.269-.805v-1.78h-2.57v-1.694h4.308v4.236c-.991 1.148-2.226 1.809-4.006 1.809-3.776 0-5.312-2.483-5.312-5.126 0-2.757 1.766-5.37 5.312-5.37 1.364 0 2.7.503 3.733 1.536l-1.177 1.207ZM80.366 46.286c0 2.067-1.407 3.733-3.719 3.733s-3.705-1.666-3.705-3.733c0-2.024 1.436-3.719 3.69-3.719 2.269 0 3.733 1.694 3.733 3.719Zm-5.643 0c0 1.062.646 2.097 1.924 2.097s1.924-1.034 1.924-2.097-.747-2.097-1.924-2.097c-1.264 0-1.924 1.034-1.924 2.097M85.78 49.818v-5.441h-1.321V42.84h1.321v-.474c0-1.896 1.278-2.771 2.699-2.771.632 0 1.25.188 1.838.575l-.646 1.306c-.388-.243-.747-.373-1.077-.373-.618 0-1.062.402-1.062 1.264v.474h2.082v1.537h-2.082v5.441H85.78ZM97.641 46.286c0 2.067-1.407 3.733-3.719 3.733s-3.705-1.666-3.705-3.733c0-2.024 1.436-3.719 3.69-3.719 2.269 0 3.733 1.694 3.733 3.719Zm-5.643 0c0 1.062.646 2.097 1.924 2.097s1.924-1.034 1.924-2.097-.747-2.097-1.924-2.097c-1.264 0-1.924 1.034-1.924 2.097M100.701 42.739l.129.818c.517-.861 1.292-.99 1.996-.99.732 0 1.436.302 1.823.66l-.79 1.522c-.359-.273-.689-.46-1.264-.46-.919 0-1.766.474-1.766 1.795v3.733h-1.751v-7.079h1.623Z" class="cls-3"/><path d="m117.487 43.644-2.657 3.145h-.517l-2.584-3.116v6.146h-2.9V39.466h3.058l2.728 3.504 2.714-3.504h3.059v10.353h-2.9v-6.174ZM127.668 50.077c-3.389 0-5.758-1.968-5.758-5.428 0-3.389 2.369-5.442 5.758-5.442s5.744 1.996 5.744 5.442-2.369 5.428-5.744 5.428m0-8.358c-1.68 0-2.829 1.206-2.829 2.93s1.163 2.915 2.829 2.915c1.709 0 2.814-1.206 2.814-2.915 0-1.795-1.091-2.93-2.814-2.93M144.527 49.818h-3.23l-2.413-3.36h-1.019v3.36h-2.929V39.465h5.054c2.656 0 4.035 1.709 4.035 3.561 0 1.278-.445 2.369-2.197 3.131l2.699 3.489zm-6.662-8.012v2.483h2.153c.775 0 1.12-.56 1.12-1.206s-.373-1.277-1.148-1.277zM154.12 49.818h-8.285V39.465h8.083v2.455h-5.198v1.479h4.896v2.383h-4.896v1.565h5.399v2.47Z" class="cls-1"/><path d="M25.729 31.916c1.093-1.833 1.648-4.024 1.648-6.512 0-3.359-.997-6.127-2.962-8.228-2.059-2.187-4.864-3.296-8.337-3.296s-6.27 1.11-8.306 3.298c-1.986 2.099-2.993 4.867-2.993 8.226 0 3.422.997 6.212 2.963 8.291 2.034 2.146 4.838 3.234 8.334 3.234.634 0 1.215-.036 1.735-.104l4.246 3.754h4.958l-5.577-4.818c1.837-.867 3.284-2.155 4.291-3.845M10.647 19.681c1.309-1.641 3.136-2.473 5.431-2.473s4.121.832 5.432 2.473c1.195 1.513 1.801 3.438 1.801 5.723s-.585 4.203-1.739 5.697c-1.288 1.658-3.136 2.499-5.494 2.499s-4.208-.841-5.495-2.501c-1.154-1.491-1.739-3.407-1.739-5.695s.606-4.21 1.802-5.723ZM41.224 20.105v7.644c0 1.962-.389 3.509-1.156 4.596-.827 1.133-2.043 1.689-3.613 1.651-1.193-.037-2.046-.482-2.533-1.32-.473-.822-.713-2.186-.713-4.055v-8.516H29.54v9.719c0 4.715 2.203 7.105 6.547 7.105a7.4 7.4 0 0 0 3.408-.808 5.3 5.3 0 0 0 1.834-1.563v2.005h3.565V20.105zM47.973 20.105v16.458h3.669V20.105zM66.52 32.881l-.403.245c-.908.558-1.969.84-3.152.84-1.731 0-3.085-.6-4.025-1.782-.826-1.036-1.245-2.331-1.245-3.851s.451-2.832 1.34-3.91c.94-1.145 2.197-1.725 3.734-1.725 1.029 0 2.116.22 3.232.653l.356.139.327-3.029-.21-.082c-1.103-.427-2.394-.643-3.839-.643-2.601 0-4.742.814-6.363 2.419-1.623 1.605-2.446 3.683-2.446 6.179 0 2.388.822 4.425 2.443 6.054 1.685 1.687 3.827 2.541 6.365 2.541 1.624 0 2.964-.227 3.983-.675l.192-.085zM75.511 27.442l8.098-7.337h-5.068l-6.299 6.049V13.049h-3.67v23.514h3.67V28.87l7.041 7.693h5.249l-9.022-9.122Z" class="cls-3"/><path d="m100.629 32.406-.408.234c-1.174.674-2.776 1.017-4.762 1.017-2.301 0-4.264-.758-5.835-2.253-1.567-1.493-2.361-3.459-2.361-5.842 0-2.345.775-4.301 2.303-5.814 1.527-1.513 3.565-2.281 6.057-2.281 1.622 0 3.137.396 4.503 1.177l.396.227.316-3.638-.195-.084c-1.491-.634-3.234-.955-5.183-.955-3.527 0-6.472 1.047-8.752 3.112-2.29 2.073-3.452 4.819-3.452 8.164 0 3.465 1.128 6.273 3.352 8.346 2.216 2.066 5.183 3.114 8.819 3.114 2.158 0 3.922-.264 5.242-.786l.199-.079zM111.526 19.735c-2.152 0-3.864.731-5.105 2.156v-8.842h-3.669v23.514h3.669v-7.63c0-1.959.389-3.503 1.156-4.588.827-1.131 2.042-1.686 3.612-1.648 1.207.038 2.026.453 2.501 1.269.494.849.745 2.226.745 4.094v8.502h3.671v-9.72c0-4.716-2.214-7.108-6.58-7.108ZM135.842 28.998c0-6.146-2.577-9.262-7.66-9.262-2.409 0-4.386.784-5.875 2.33-1.489 1.543-2.244 3.558-2.244 5.987 0 2.74.733 4.901 2.178 6.422 1.534 1.628 3.809 2.454 6.762 2.454 1.555 0 3.36-.35 5.367-1.041-.031.005.135-.046.135-.046l.066-.02-.003-.068v-3.669l-.476.378c-.408.326-1.082.651-2.006.967-1.073.356-2.065.537-2.947.537-1.424 0-2.647-.463-3.632-1.376-.96-.871-1.473-1.983-1.543-3.3h11.879zm-7.726-6.3c1.19 0 2.138.39 2.819 1.16.621.7.956 1.6 1.01 2.668h-7.956c.16-1.002.52-1.845 1.08-2.5.747-.881 1.772-1.328 3.046-1.328ZM144.939 27.442l8.098-7.337h-5.067l-6.3 6.049V13.049h-3.671v23.514h3.671V28.87l7.04 7.693h5.251l-9.023-9.122ZM49.892 13.809c-1.208 0-2.19.983-2.19 2.192s.983 2.191 2.19 2.191 2.192-.983 2.192-2.191-.983-2.192-2.192-2.192" class="cls-3"/><path d="M185.135 31.094c.614-.082 6.238-.71 10.222 2.29a19 19 0 0 0 2.389-9.246c0-10.556-8.559-19.114-19.117-19.114s-19.116 8.558-19.116 19.114 8.559 19.12 19.116 19.12c3.612 0 6.983-1.007 9.865-2.748-3.188-3.519-3.35-8.738-3.359-9.415Zm-6.506 1.16c-4.484 0-8.117-3.632-8.117-8.117s3.634-8.116 8.117-8.116a8.117 8.117 0 1 1 0 16.233" style="fill:#80bc00"/><path d="M185.135 31.094c.01.731.195 6.773 4.191 10.235 3.995 3.463 10.352 2.8 10.725 2.696-.029-.729-.195-6.774-4.19-10.238-3.995-3.461-10.086-2.779-10.726-2.693M156.883 33.526c.996 0 1.806.811 1.806 1.806s-.811 1.806-1.806 1.806-1.806-.811-1.806-1.806.811-1.806 1.806-1.806m.005 3.343c.831 0 1.456-.67 1.456-1.536s-.625-1.536-1.456-1.536c-.841 0-1.466.67-1.466 1.536s.625 1.536 1.466 1.536m-.696-2.597h.811c.486 0 .726.195.726.595 0 .34-.216.585-.546.585l.601.935h-.365l-.59-.935h-.29v.935h-.345v-2.116Zm.345.91h.41c.265 0 .436-.054.436-.33 0-.24-.215-.31-.436-.31h-.41z" class="cls-3"/></g></svg>