<svg xmlns="http://www.w3.org/2000/svg" viewBox="0 0 246.024 250"><defs><style>.cls-1{fill:#93d500}.cls-3{fill:#fff}</style></defs><g id="stacked_logo"><path d="M141.336 108.936c2.127-.282 21.621-2.46 35.421 7.937a65.9 65.9 0 0 0 8.278-32.043c0-36.581-29.66-66.234-66.244-66.234S52.544 48.249 52.544 84.83s29.663 66.255 66.247 66.255a65.87 65.87 0 0 0 34.183-9.521c-11.048-12.197-11.604-30.284-11.638-32.629Zm-22.545 4.026c-15.534 0-28.13-12.594-28.13-28.132s12.596-28.128 28.13-28.128 28.127 12.595 28.127 28.128-12.588 28.132-28.127 28.132" style="fill:#80bc00"/><path d="M141.336 108.936c.036 2.535.674 23.473 14.522 35.468 13.846 12.001 35.881 9.698 37.169 9.343-.098-2.524-.677-23.475-14.523-35.479-13.841-11.989-34.95-9.627-37.168-9.332M47.797 196.912c1.528-2.562 2.303-5.625 2.303-9.103 0-4.695-1.393-8.565-4.14-11.503-2.878-3.058-6.8-4.608-11.655-4.608s-8.766 1.551-11.611 4.61c-2.777 2.934-4.185 6.803-4.185 11.5 0 4.784 1.394 8.684 4.142 11.59 2.843 3 6.763 4.521 11.651 4.521.886 0 1.699-.05 2.425-.145l5.936 5.247h6.931l-7.795-6.735c2.568-1.212 4.592-3.013 5.999-5.376Zm-21.085-17.104c1.83-2.293 4.384-3.457 7.593-3.457s5.761 1.163 7.593 3.457c1.671 2.115 2.518 4.807 2.518 8s-.818 5.876-2.431 7.964c-1.8 2.318-4.384 3.493-7.68 3.493s-5.883-1.176-7.682-3.496c-1.613-2.084-2.431-4.763-2.431-7.961s.848-5.886 2.519-8.001ZM69.458 180.401v10.686c0 2.743-.544 4.905-1.617 6.425-1.157 1.584-2.856 2.361-5.051 2.308-1.668-.052-2.86-.673-3.541-1.846-.661-1.149-.997-3.056-.997-5.668v-11.905h-5.129v13.586c0 6.591 3.079 9.932 9.153 9.932 1.703 0 3.307-.38 4.765-1.129a7.46 7.46 0 0 0 2.565-2.185v2.803h4.983V180.4h-5.131ZM78.892 180.401v23.007h5.13v-23.007zM104.821 198.26l-.564.343c-1.27.78-2.752 1.175-4.406 1.175-2.419 0-4.313-.839-5.627-2.492-1.155-1.448-1.741-3.259-1.741-5.383s.63-3.958 1.873-5.465c1.314-1.601 3.07-2.412 5.22-2.412 1.438 0 2.958.307 4.518.912l.497.194.458-4.235-.293-.115c-1.542-.597-3.348-.899-5.367-.899-3.636 0-6.629 1.138-8.895 3.382-2.269 2.243-3.419 5.149-3.419 8.638 0 3.339 1.149 6.186 3.416 8.464 2.356 2.358 5.35 3.553 8.898 3.553 2.271 0 4.144-.318 5.568-.944l.268-.119zM117.39 190.657l11.32-10.256h-7.085l-8.805 8.457v-18.321h-5.13v32.872h5.13v-10.754l9.844 10.754h7.338z" class="cls-3"/><path d="m152.504 197.596-.57.326c-1.641.943-3.881 1.421-6.658 1.421-3.217 0-5.961-1.06-8.157-3.15-2.19-2.087-3.301-4.835-3.301-8.168 0-3.279 1.083-6.013 3.219-8.128 2.135-2.115 4.984-3.188 8.467-3.188 2.267 0 4.385.553 6.295 1.645l.554.318.441-5.086-.273-.117c-2.084-.886-4.522-1.336-7.245-1.336-4.931 0-9.047 1.464-12.234 4.351-3.202 2.898-4.826 6.737-4.826 11.412 0 4.843 1.577 8.769 4.687 11.668 3.098 2.889 7.246 4.353 12.328 4.353 3.017 0 5.482-.369 7.328-1.098l.278-.11-.334-5.114ZM167.737 179.883c-3.008 0-5.401 1.021-7.136 3.015v-12.361h-5.129v32.872h5.129v-10.666c0-2.738.544-4.896 1.616-6.413 1.156-1.581 2.855-2.356 5.05-2.303 1.688.053 2.832.633 3.496 1.774.691 1.186 1.041 3.112 1.041 5.723v11.885h5.132V189.82c0-6.593-3.095-9.936-9.199-9.936ZM201.73 192.832c0-8.592-3.603-12.948-10.709-12.948-3.368 0-6.132 1.096-8.213 3.257-2.082 2.158-3.138 4.973-3.138 8.37 0 3.83 1.024 6.851 3.045 8.978 2.145 2.276 5.325 3.43 9.452 3.43 2.174 0 4.698-.49 7.503-1.455-.043.007.189-.065.189-.065l.092-.029-.004-.095v-5.129l-.665.529c-.57.456-1.513.91-2.804 1.352-1.5.498-2.886.751-4.12.751-1.991 0-3.7-.647-5.077-1.924-1.342-1.217-2.059-2.772-2.157-4.613h16.606zm-10.801-8.806c1.663 0 2.989.546 3.941 1.622.868.979 1.337 2.236 1.412 3.729H185.16c.224-1.401.726-2.58 1.51-3.495 1.044-1.232 2.477-1.856 4.259-1.856M214.448 190.657l11.321-10.256h-7.083l-8.807 8.457v-18.321h-5.131v32.872h5.131v-10.754l9.842 10.754h7.34zM81.575 171.599c-1.688 0-3.062 1.375-3.062 3.064s1.374 3.063 3.062 3.063 3.065-1.374 3.065-3.063-1.375-3.064-3.065-3.064M231.144 199.163c1.392 0 2.525 1.133 2.525 2.525s-1.133 2.525-2.525 2.525-2.525-1.133-2.525-2.525 1.133-2.525 2.525-2.525m.007 4.672c1.161 0 2.036-.937 2.036-2.147s-.874-2.147-2.036-2.147c-1.175 0-2.05.937-2.05 2.147s.874 2.147 2.05 2.147m-.972-3.63h1.133c.679 0 1.015.272 1.015.832 0 .475-.302.818-.763.818l.839 1.307h-.511l-.825-1.307h-.406v1.307h-.482v-2.958Zm.482 1.272h.574c.371 0 .609-.076.609-.461 0-.336-.301-.434-.609-.434h-.574v.894ZM79.614 216.447c-1.194-1.144-2.972-1.778-4.522-1.778-3.811 0-6.123 2.743-6.123 6.428 0 2.921 1.702 5.944 6.123 5.944 1.423 0 2.591-.305 4.014-1.423v-3.149h-4.548v-2.998h7.622v7.494c-1.753 2.033-3.938 3.201-7.088 3.201-6.682 0-9.4-4.395-9.4-9.069 0-4.878 3.125-9.502 9.4-9.502 2.414 0 4.776.889 6.605 2.719zM97.5 223.51c0 3.658-2.49 6.605-6.58 6.605s-6.555-2.947-6.555-6.605c0-3.582 2.541-6.58 6.529-6.58 4.014 0 6.605 2.998 6.605 6.58Zm-9.984 0c0 1.88 1.143 3.709 3.404 3.709s3.404-1.829 3.404-3.709-1.321-3.709-3.404-3.709c-2.236 0-3.404 1.829-3.404 3.709M107.077 229.76v-9.629h-2.337v-2.719h2.337v-.838c0-3.354 2.261-4.903 4.776-4.903 1.118 0 2.21.33 3.252 1.016l-1.143 2.312c-.686-.432-1.321-.66-1.905-.66-1.093 0-1.88.711-1.88 2.235v.838h3.684v2.719h-3.684v9.629zM128.063 223.51c0 3.658-2.49 6.605-6.58 6.605s-6.555-2.947-6.555-6.605c0-3.582 2.541-6.58 6.529-6.58 4.014 0 6.605 2.998 6.605 6.58Zm-9.985 0c0 1.88 1.143 3.709 3.404 3.709s3.404-1.829 3.404-3.709-1.321-3.709-3.404-3.709c-2.236 0-3.404 1.829-3.404 3.709M133.474 217.234l.229 1.448c.915-1.524 2.287-1.753 3.531-1.753 1.296 0 2.541.533 3.227 1.169l-1.397 2.692c-.635-.482-1.219-.812-2.235-.812-1.626 0-3.125.839-3.125 3.176v6.605h-3.1v-12.525h2.871Z" class="cls-3"/><path d="m163.172 218.835-4.7 5.564h-.915l-4.573-5.514v10.874h-5.132v-18.317h5.412l4.827 6.199 4.802-6.199h5.411v18.317h-5.132v-10.925ZM181.185 230.217c-5.996 0-10.188-3.48-10.188-9.604 0-5.995 4.192-9.629 10.188-9.629s10.162 3.532 10.162 9.629-4.192 9.604-10.162 9.604m0-14.786c-2.973 0-5.005 2.135-5.005 5.183s2.058 5.158 5.005 5.158c3.023 0 4.979-2.135 4.979-5.158 0-3.176-1.931-5.183-4.979-5.183M211.01 229.76h-5.716l-4.268-5.945h-1.804v5.945h-5.183v-18.317h8.943c4.7 0 7.139 3.023 7.139 6.301 0 2.261-.788 4.191-3.887 5.538l4.776 6.174v.305Zm-11.788-14.177v4.396h3.811c1.372 0 1.982-.991 1.982-2.134s-.661-2.262-2.033-2.262zM227.981 229.76h-14.659v-18.317h14.304v4.344h-9.197v2.617h8.663v4.218h-8.663v2.769h9.552z" class="cls-1"/></g></svg>