<svg xmlns="http://www.w3.org/2000/svg" viewBox="0 0 950.506 134.809"><defs><style>.cls-1{fill:#fff}</style></defs><g id="Eyebrow_copy"><path d="M85.482 17.939 52.431 57.042l35.96 40.849v1.047H66.512L36.37 64.14v34.798H18.216V17.474H36.37v33.633l27.116-33.633h21.996zM136.432 48.081l.582-6.634h15.71v57.491h-15.13l-.93-7.216a13.2 13.2 0 0 1-3.551 3.9 21.3 21.3 0 0 1-4.596 2.559 29 29 0 0 1-4.947 1.514q-2.503.522-4.596.522-6.52 0-11.929-1.977-5.413-1.978-9.37-5.877c-3.957-3.899-4.694-5.762-6.167-9.485q-2.212-5.587-2.211-12.686c.001-7.099.776-8.979 2.327-12.744q2.326-5.643 6.402-9.485 4.073-3.838 9.543-5.877 5.47-2.033 11.871-1.919 5.467 0 10.067 2.037 4.595 2.036 6.924 5.877Zm-15.247 6.867q-3.142 0-5.877 1.047a14.5 14.5 0 0 0-4.828 3.026q-2.097 1.98-3.26 4.77-1.163 2.795-1.162 6.402c.001 3.607.387 4.538 1.162 6.402q1.165 2.793 3.26 4.713a15 15 0 0 0 4.828 2.968q2.735 1.046 5.877 1.047 3.492.001 6.344-1.282 2.85-1.279 4.83-3.316a14.2 14.2 0 0 0 3.026-4.655q1.046-2.617 1.047-5.295-.001-3.141-.989-5.994-.989-2.849-2.911-5.003-1.92-2.154-4.77-3.493-2.854-1.337-6.576-1.337ZM225.925 41.447l-35.262 83.328h-18.271l11.871-27.583-24.09-55.745h18.853l14.315 36.194 14.081-36.194zM260.84 81.482l6.749-18.97 8.263-21.064h18.853l-24.673 57.841h-18.388l-24.673-57.841h18.853l8.263 21.064 6.751 18.97ZM330.318 100.218q-7.335 0-13.151-2.211-5.821-2.21-9.892-6.225-4.076-4.016-6.227-9.485-2.154-5.47-2.154-11.987c0-6.517.736-8.36 2.211-12.046q2.21-5.527 6.344-9.543c2.752-2.676 6.052-4.772 9.89-6.284q5.762-2.268 12.978-2.269c7.216-.001 9.154.757 13.034 2.269q5.818 2.269 9.95 6.284 4.129 4.016 6.342 9.543 2.21 5.53 2.211 12.046c.001 6.516-.718 8.339-2.152 11.987q-2.157 5.47-6.284 9.485-4.134 4.015-9.95 6.225c-3.882 1.473-8.263 2.211-13.151 2.211Zm0-14.896q3.838 0 6.574-1.275 2.734-1.277 4.538-3.361 1.804-2.088 2.619-4.812c.815-2.724.815-3.651.815-5.507q0-2.665-.872-5.39a14.8 14.8 0 0 0-2.619-4.871q-1.747-2.142-4.48-3.479-2.736-1.332-6.574-1.333-3.728.001-6.459 1.333-2.737 1.337-4.48 3.479a14.8 14.8 0 0 0-2.619 4.871q-.874 2.723-.874 5.39c0 2.667.272 3.555.815 5.334a14.1 14.1 0 0 0 2.561 4.812q1.745 2.143 4.48 3.476 2.734 1.333 6.576 1.333ZM414.109 98.938V68.563q0-13.383-11.871-13.383-2.911 0-5.295 1.105a12.4 12.4 0 0 0-4.133 3.086 14.1 14.1 0 0 0-2.676 4.538 15.5 15.5 0 0 0-.93 5.353v29.677h-16.527V41.448h15.13l.582 7.331q3.838-5.004 8.611-6.924 4.77-1.919 10.01-1.804 4.886 0 9.193 1.282 4.305 1.28 7.624 4.538c3.319 3.258 3.956 5.083 5.237 8.728q1.92 5.47 1.919 13.848v30.492h-16.874ZM444.321 19.475h17.107l-9.775 28.163h-13.036zM498.81 57.741q-3.263-2.326-6.459-3.26-3.202-.93-7.159-.93-4.074 0-6.167 1.337c-1.399.895-2.094 2.039-2.094 3.433q0 4.774 8.496 5.005a67 67 0 0 1 8.611.815c2.946.465 5.645 1.339 8.088 2.619s4.439 3.125 5.994 5.527q2.325 3.61 2.324 9.545.001 3.492-1.337 6.924-1.34 3.433-4.365 6.225-3.025 2.795-7.796 4.482-4.77 1.686-11.639 1.687a52 52 0 0 1-6.398-.405 38.7 38.7 0 0 1-6.634-1.454q-3.378-1.046-6.867-2.962-3.494-1.917-7.099-4.939l7.214-11.853q5.354 4.475 10.415 5.828c3.378.903 6.574 1.393 9.602 1.471q3.723.118 6.225-1.236 2.504-1.352 2.386-3.707.001-2.001-1.979-3.474c-1.321-.981-3.917-1.551-7.796-1.707q-4.071-.115-8.323-1.164-4.245-1.046-7.737-3.141a17.8 17.8 0 0 1-5.76-5.527q-2.27-3.43-2.269-8.555 0-4.886 2.094-8.378 2.095-3.491 5.585-5.76 3.492-2.27 7.971-3.318a40 40 0 0 1 9.138-1.047q6.635 0 12.042 1.746 5.414 1.745 9.952 5.702l-8.261 10.475ZM568.166 75.895v23.043h-18.152V17.474h38.402q7.8 0 13.675 2.327t9.775 6.344a25.9 25.9 0 0 1 5.822 9.308q1.92 5.296 1.921 11.232-.002 6.17-1.979 11.464-1.98 5.296-5.879 9.193-3.899 3.9-9.718 6.167-5.819 2.272-13.618 2.386h-20.25Zm0-16.642h20.25q6.516 0 9.779-3.666c2.168-2.444 3.258-5.295 3.258-8.553s-1.09-6.128-3.258-8.613q-3.264-3.722-9.779-3.723h-20.25zM644.978 41.564l1.28 6.284q2.907-4.073 6.69-5.877c3.783-1.804 5.414-1.804 8.673-1.804q8.146-.001 14.083 5.237l-6.986 13.266q-4.074-2.908-9.191-2.909-2.679 0-5.122.872c-2.443.872-3.065 1.436-4.308 2.561q-1.858 1.687-2.909 4.131-1.044 2.445-1.045 5.702v29.91h-16.761V41.563h15.597ZM710.265 100.218q-7.334 0-13.149-2.211c-3.884-1.473-7.179-3.548-9.895-6.225-2.715-2.678-4.793-5.838-6.225-9.485q-2.155-5.47-2.156-11.987c-.001-6.517.736-8.36 2.213-12.046q2.21-5.527 6.344-9.543c2.752-2.676 6.052-4.772 9.89-6.284s8.167-2.269 12.976-2.269 9.154.757 13.034 2.269 7.196 3.608 9.952 6.284q4.13 4.016 6.34 9.543 2.211 5.53 2.213 12.046c.002 6.516-.72 8.339-2.152 11.987q-2.159 5.47-6.286 9.485-4.134 4.015-9.948 6.225c-3.884 1.473-8.265 2.211-13.153 2.211Zm0-14.896q3.84 0 6.574-1.275c2.734-1.275 3.337-1.971 4.538-3.361q1.807-2.088 2.621-4.812c.814-2.724.815-3.651.815-5.507q-.001-2.665-.872-5.39a14.8 14.8 0 0 0-2.621-4.871q-1.747-2.142-4.48-3.479-2.735-1.332-6.574-1.333-3.727.001-6.459 1.333-2.734 1.337-4.48 3.479a14.8 14.8 0 0 0-2.617 4.871q-.876 2.723-.876 5.39c0 2.667.272 3.555.815 5.334a14.1 14.1 0 0 0 2.563 4.812c1.164 1.428 2.654 2.588 4.48 3.476q2.735 1.333 6.574 1.333ZM787.563 33.766h-24.788V17.474h67.62v16.292h-24.792v65.172h-18.041V33.766ZM838.307 26.202q-.001-4.77 2.966-7.099 2.967-2.328 6.574-2.329c3.607-.001 4.6.778 6.574 2.329q2.97 2.33 2.97 7.099c0 4.769-.992 5.548-2.97 7.099q-2.964 2.328-6.574 2.327c-3.61-.001-4.596-.773-6.574-2.327q-2.967-2.326-2.966-7.099m17.921 15.13v57.606h-16.757V41.332zM870.426 124.308V41.564h15.013l1.045 7.331q3.955-5.12 8.788-6.749c3.217-1.086 6.653-1.631 10.298-1.631q6.286.001 11.524 2.154 5.234 2.154 9.018 6.052 3.782 3.9 5.817 9.368 2.037 5.473 2.037 12.221c0 4.655-.695 8.825-2.094 12.509-1.395 3.686-3.357 6.83-5.875 9.428q-3.784 3.9-9.08 5.935-5.295 2.037-11.577 2.037c-3.028 0-6.167-.601-9.43-1.804q-4.885-1.802-8.611-6.342v32.236h-16.872ZM903.01 85.09q6.516 0 10.298-4.116 3.784-4.114 3.785-10.606-.001-3.128-.934-5.795-.93-2.668-2.732-4.637-1.806-1.97-4.423-3.131c-1.749-.773-3.744-1.16-5.994-1.16-1.864 0-3.723.253-5.587.755a13.85 13.85 0 0 0-5.003 2.491c-1.477 1.16-2.658 2.687-3.551 4.579q-1.338 2.841-1.337 6.897-.001 3.593 1.337 6.375c1.338 2.782 2.057 3.4 3.493 4.637q2.15 1.854 4.945 2.783c1.864.617 3.76.928 5.702.928Z" class="cls-1"/></g></svg>