<svg xmlns="http://www.w3.org/2000/svg" id="Layer_1" version="1.1" viewBox="0 0 278 79"><defs><linearGradient id="linear-gradient" x1="164.3" x2="160.1" y1="68" y2="27.5" gradientUnits="userSpaceOnUse"><stop offset="0" stop-color="#fff"/><stop offset="1" stop-color="#fed103"/></linearGradient><style>.st0{fill:#fed103}</style></defs><g id="_x34_99-Subs_x5F_Static-HTML-Billboard_x5F_970x250"><g id="Try-Our-NEW-Subwiches-Lockup"><path id="path-1" d="M61.1 50.6c-6.3.7-11.1 5.7-10.6 9.9.7 6.5 8.5 8.5 8.7 10.8.2 1.7-1.1 2.9-2.5 3.1-.9 0-2.3-.9-2.4-1.9 0-.7.7-1.1.6-2.4s-1.2-2.7-3.2-2.5-3.7 1.7-3.3 4.8c.4 3.8 4.4 7.2 9.7 6.6 6.9-.7 12.7-5.4 12.2-10.6-.6-6.1-9.4-7.8-9.8-11.4-.2-2.2 1.7-3.6 3-3.7 1.8-.2 2 .8 2 1.1 0 .7-2 1.3-1.8 2.7s1.6 2.4 3.3 2.3c1.2-.1 4.2-1.2 3.9-4-.3-2.5-2.8-4.8-7.9-4.8s-1.3 0-1.9.1m107-7.2h-.7c-1.8.2-3.2.9-4.1 1.6-.5.4-1 .9-1.5 1.3l.6.4c.4.3.5.9.4 1.4l-1.6 9c-.9 3.6-3.4 6.4-5.3 6.6-1.1.1-1.1-1.1-1-1.8l2.3-13.3c.4-2.2-1.6-4-4.6-3.7-1.9.2-3.2.9-4.1 1.6-.5.4-1 .9-1.5 1.3l.6.4c.4.3.5.9.4 1.4L146.2 60c-.9 3.1-3.4 5.2-5.2 5.4-1.1.1-1.1-1.1-1-1.8l2.3-13.3c.4-2.2-1.6-4-4.6-3.7-1.8.2-3.2.9-4.1 1.6-.5.4-1 .9-1.5 1.3l.6.4c.4.3.5.9.4 1.4l-2.5 14.4c-.7 3.5 3.6 4.6 6.1 4.3 3.8-.4 6.5-2.5 8.8-4.8 1.1 3.4 4.8 3.3 7.5 3.1 5-.5 15.9-4.2 17.3-12.3 0 0 .4-2.3.8-4.5l.8-4.4c.3-2-1.3-3.7-3.9-3.7M112.7 63l.9-4.6c.5-2.5 2.5-5.4 4-5.6 1.9-.2 3.4 3.1 2.5 8.1-.7 3.7-2.8 6-5 6.2h-.3c-1.4 0-2.6-1.2-2.2-4.1m.8-30.5h-.7c-1.9.2-3.2.9-4.1 1.6-.5.4-1 .9-1.5 1.3l.6.4c.4.3.5.9.4 1.4l-4.7 27.4c-1.4 2.1-3.8 4.8-5.7 5-.8 0-1-.4-1-.9l2.4-13.8c.4-2.2-1.6-4-4.6-3.7-1.9.2-3.2.9-4.1 1.6-.5.4-1 .9-1.5 1.3l.6.4c.4.3.5.9.4 1.4l-1.9 11c-1.6 2.4-3.6 4.5-5.1 4.6-1.1.1-1.1-1.1-1-1.8l2.3-13.3c.4-2.2-1.6-4-4.6-3.7-1.9.2-3.2.9-4.1 1.6-.5.4-1 .9-1.5 1.3l.6.4c.4.3.5.9.4 1.4L73.2 68c-.8 4.8 2.7 8.4 5.9 8.1 3.8-.4 6.2-2.5 8.4-4.8.3 1.6 1.2 3.4 3.7 3.5 5 .3 9.9-3.7 12.5-6.9 1.1 3.1 4.4 5.9 10.4 5.3 8-.8 13.4-5.8 14.7-12.2 1.9-9-3-13.5-9.2-12.7-1.8.2-3.5 1.4-4.9 2.7l2.6-14.9c.3-2-1.3-3.7-3.9-3.7m68.5-3.1h-.5c-2.6.3-4.6 2.6-4.6 5.2s2.1 4.4 4.6 4.2c2.6-.3 4.6-2.6 4.6-5.1s-1.8-4.2-4.1-4.2m68.8 9.1c.4 0 .6.4.6 1.3.1 2.8-2.7 5.2-4.9 5.9 1.1-5.5 3.5-7 4.3-7.1m-31.8-17.2c-1.9.2-3.2.9-4.1 1.6-.5.4-1 .9-1.5 1.3l.6.4c.4.3.5.9.4 1.4L209.6 53c-.1.1-.3.2-.3.4-1.9 3-4.7 5.9-8.2 6.3-1.3.1-6.2-.7-5.2-7.4 1.1-6.6 3.7-8.4 4.6-8.5.9 0 .7 3-.4 4.2-.9.8-.8 3.4 1.8 3.2 2.5-.3 3.8-1.9 4.1-4.8.4-2.8-1.9-6.5-6.7-6-6.1.6-11.4 5.4-12 14.2 0 .8 0 1.6.1 2.4-1.3 1.8-3 3.5-4.9 3.7-.8 0-1-.4-1-.9l2.4-13.8c.4-2.2-1.6-4-4.6-3.7-1.9.2-3.2.9-4.1 1.6-.5.4-1 .9-1.5 1.3l.6.4c.4.3.5.8.4 1.4l-2.4 13.7c-.2 1.7.3 5 3.8 5.2 4.7.3 9.5-3.3 12.2-6.4 1.4 2.8 4.3 4.9 8.9 4.7 5.4-.3 9.4-3.6 11.6-6.2v.4c-.4 2.2 1.5 4 4.5 3.7 1.7-.2 3.2-.9 4.1-1.6.5-.4 1-.8 1.5-1.3l-.6-.4c-.3-.3-.6-.7-.4-1.4l2-11.8c1.5-2 3.2-3.6 4.5-3.8 1.1-.1 1.1 1.1 1 1.8l-2.1 11.8c-.3 3.7 2.3 5.5 5.9 5.1 4.1-.4 7.4-3.7 9.4-6.4 1.7 2.8 5.1 4.9 9.8 4.4 3.8-.4 7.5-2.6 10-5.5 1.1 2.5 4.1 4.5 7.9 4.1 5.9-.6 10.9-4.6 10.5-9.1-.6-5.3-8.1-6.7-8.5-9.8-.2-1.9 1.4-3.1 2.5-3.2 1.5-.2 1.7.7 1.8.9 0 .6-1.7 1.1-1.6 2.3s1.3 2.1 2.9 1.9c1.1-.1 3.6-1 3.4-3.5-.2-2.4-3-4.6-8.4-4s-9.5 4.9-9.1 8.5c.6 5.6 7.3 7.3 7.5 9.3.1 1.4-.9 2.5-2.1 2.6-.8 0-2-.8-2-1.7 0-.6.6-1 .5-2-.1-1.1-1-2.4-2.7-2.2-1.3.1-2.4.9-2.8 2.3-1.7 2.2-4.4 4.3-6.8 4.6-1 .1-5.8-.4-5.3-6 .9.1 2 .1 3.1-.2 3.5-1 7.1-3.7 7.1-7.5.2-3.7-3.6-5.6-6.7-5.3-6.1.6-11.4 5.4-12 14.2 0 .7 0 1.5.1 2.2-1.2 1.8-2.7 3.8-4.1 3.9-.8 0-1-.4-1-.9l2.2-13c.2-1.4-.4-2.8-1.7-3.6-.9-.7-2.3-1-4.4-.8-3.4.4-5.9 2-8 4l2.8-16c.3-2-1.3-3.7-3.9-3.7h-.7" style="fill:url(#linear-gradient);fill-rule:evenodd"/><g id="Group"><path id="Path" d="m6.4 25.4-5.9.7.3-4.9 17.6-1.8-.3 4.8-6 .6L11 40.7l-5.7.6z" class="st0"/><path id="Path1" d="m22.1 25 .2 1.6c.9-1.5 2.2-2.2 3.6-2.3 1.5-.2 2.8.2 3.7 1.2l-2.4 4.2c-.8-.6-1.4-.7-2.3-.6-1.4.1-2.5 1.1-2.7 3l-.5 7.6-5.3.6 1-14.6 4.8-.5Z" class="st0" data-name="Path"/><path id="Path2" d="M35.2 30.8c-.1 1.7.3 3.1 2.1 3 1.8-.2 2.3-2 2.4-3.3l.5-7.3 5.3-.6-1 14.7c-.3 5.1-3.6 7.5-7.9 8-4.3.4-7.1-1.2-6.9-5.4l5-.5c0 1.5 1.2 1.6 2.3 1.5 1.7-.2 2.3-1.3 2.4-3v-2c-.8 1.5-1.9 2.1-3.6 2.2-4.6.5-6.2-2.4-5.9-6.7l.5-7.3 5.3-.6-.5 7.2Z" class="st0" data-name="Path"/><path id="Shape" d="M64.8 35.6c-5.9.6-10-2.2-10.7-7.7-1-7.7 4.3-13.1 11.8-13.9 5.9-.6 10 2.2 10.7 7.7 1 7.8-4.2 13.1-11.8 13.9m1-16.7c-3.7.4-6.4 3.6-6.1 7.5.2 2.8 2.2 4.6 5 4.3 3.9-.4 6.4-3.7 6.1-7.5-.2-2.9-2.1-4.5-5.1-4.2Z" class="st0"/><path id="Path3" d="m84.4 18.5-.6 8.1c-.1 1.8.9 2.3 1.8 2.2 1.3-.1 2.5-1.1 2.7-3l.5-7.8 5.3-.6-1 14.6-4.7.5v-1.6c-1.4 1.6-3.3 2.3-4.8 2.4-3 .3-5.5-1.1-5.1-6.3l.6-8.1 5.3-.6Z" class="st0" data-name="Path"/><path id="Path4" d="m101.6 16.7.2 1.6c.9-1.5 2.2-2.2 3.6-2.3 1.5-.2 2.8.2 3.7 1.2l-2.4 4.2c-.8-.6-1.4-.7-2.3-.6-1.4.1-2.5 1.1-2.7 3l-.5 7.6-5.3.6 1-14.6 4.8-.5Z" class="st0" data-name="Path"/></g><g id="Group1" data-name="Group"><path id="Path5" d="M131.1 18.6v-4.7l.5-7.5 6.1-.6-1.5 21.8-5.1.5-8.1-10.8-.2 4.8-.5 7-6.1.6 1.5-21.8 5.1-.5 8.3 11.3Z" class="st0" data-name="Path"/><path id="Path6" d="m157.3 25.3-17.1 1.8 1.5-21.8L158 3.6l-.3 5.2-10.4 1-.2 3.2 9.8-1.1-.4 5.1-9.7 1-.3 3.3 11.2-1.2z" class="st0" data-name="Path"/><path id="Path7" d="m183.1 22.6-5.2.5-3.1-10.1-4.4 10.8-4.9.5-6.5-21 6.6-.7c2.6 9 2.8 10.7 3 12.3l4.8-13.1 4.2-.4 3.2 12.3L185.5.6l6.6-.7-9.1 22.6Z" class="st0" data-name="Path"/></g></g></g></svg>